<svg width="10" height="10" viewBox="0 0 21 20" fill="none" xmlns="http://www.w3.org/2000/svg">
<path d="M19.048 0.960197C17.7677 -0.320066 15.6996 -0.320066 14.4358 0.960197L10.0041 5.39188L5.57243 0.960197C4.29216 -0.320066 2.22405 -0.320066 0.960197 0.960197C-0.320066 2.24046 -0.320066 4.30858 0.960197 5.57243L5.39188 10.0041L0.960197 14.4358C-0.320066 15.716 -0.320066 17.7677 0.960197 19.048C1.60033 19.6881 2.43742 20 3.27452 20C4.11161 20 4.94871 19.6881 5.58884 19.048L10.0205 14.6163L14.4522 19.048C15.0923 19.6881 15.9294 20 16.7665 20C17.6036 20 18.4407 19.6881 19.0808 19.048C20.3611 17.7677 20.3611 15.716 19.0808 14.4358L14.6492 10.0041L19.0808 5.57243C20.3283 4.29216 20.3283 2.22405 19.048 0.960197Z" fill="white"/>
</svg>
