<svg width="21" height="20" viewBox="0 0 21 20" fill="none" xmlns="http://www.w3.org/2000/svg">
<path d="M18.4573 10.0025C18.4573 10.4111 18.4287 10.8177 18.3756 11.2222C18.3878 11.1323 18.4001 11.0404 18.4123 10.9505C18.3061 11.7248 18.0997 12.4849 17.7973 13.2061C17.8321 13.1244 17.8668 13.0427 17.8995 12.963C17.5992 13.676 17.2069 14.3482 16.7349 14.9612C16.788 14.8917 16.8412 14.8243 16.8943 14.7548C16.4182 15.3698 15.8666 15.9235 15.2516 16.3975C15.3211 16.3444 15.3885 16.2912 15.458 16.2381C14.845 16.7101 14.1728 17.1003 13.4598 17.4027C13.5415 17.368 13.6232 17.3332 13.7029 17.3006C12.9817 17.6029 12.2216 17.8093 11.4473 17.9155C11.5372 17.9033 11.6291 17.891 11.719 17.8788C10.9099 17.9871 10.0865 17.9871 9.27745 17.8788C9.36735 17.891 9.45929 17.9033 9.54919 17.9155C8.77484 17.8093 8.01479 17.6029 7.29356 17.3006C7.37529 17.3353 7.45701 17.37 7.5367 17.4027C6.82364 17.1024 6.15145 16.7101 5.53851 16.2381C5.60797 16.2912 5.6754 16.3444 5.74486 16.3975C5.12988 15.9214 4.57619 15.3698 4.10218 14.7548C4.1553 14.8243 4.20842 14.8917 4.26154 14.9612C3.78958 14.3482 3.39934 13.676 3.09695 12.963C3.13169 13.0447 3.16642 13.1264 3.19911 13.2061C2.89672 12.4849 2.69037 11.7248 2.58412 10.9505C2.59638 11.0404 2.60864 11.1323 2.6209 11.2222C2.51261 10.4131 2.51261 9.58974 2.6209 8.78066C2.60864 8.87056 2.59638 8.9625 2.58412 9.0524C2.69037 8.27805 2.89672 7.518 3.19911 6.79677C3.16438 6.8785 3.12964 6.96022 3.09695 7.0399C3.39729 6.32685 3.78958 5.65465 4.26154 5.04171C4.20842 5.11118 4.1553 5.1786 4.10218 5.24807C4.57823 4.63308 5.12988 4.07939 5.74486 3.60538C5.6754 3.65851 5.60797 3.71163 5.53851 3.76475C6.15145 3.29278 6.82364 2.90254 7.5367 2.60016C7.45497 2.63489 7.37325 2.66963 7.29356 2.70232C8.01479 2.39993 8.77484 2.19357 9.54919 2.08733C9.45929 2.09959 9.36735 2.11185 9.27745 2.12411C10.0865 2.01582 10.9099 2.01582 11.719 2.12411C11.6291 2.11185 11.5372 2.09959 11.4473 2.08733C12.2216 2.19357 12.9817 2.39993 13.7029 2.70232C13.6212 2.66758 13.5394 2.63285 13.4598 2.60016C14.1728 2.9005 14.845 3.29278 15.458 3.76475C15.3885 3.71163 15.3211 3.65851 15.2516 3.60538C15.8666 4.08144 16.4203 4.63308 16.8943 5.24807C16.8412 5.1786 16.788 5.11118 16.7349 5.04171C17.2069 5.65465 17.5971 6.32685 17.8995 7.0399C17.8648 6.95818 17.83 6.87645 17.7973 6.79677C18.0997 7.518 18.3061 8.27805 18.4123 9.0524C18.4001 8.9625 18.3878 8.87056 18.3756 8.78066C18.4287 9.18724 18.4552 9.59383 18.4573 10.0025C18.4573 10.264 18.5717 10.5398 18.7556 10.7257C18.9333 10.9035 19.2235 11.0363 19.4789 11.024C19.7424 11.0118 20.0162 10.926 20.2021 10.7257C20.386 10.5255 20.5025 10.2803 20.5004 10.0025C20.4984 8.9768 20.3451 7.9348 20.0285 6.95818C19.7199 6.01016 19.2786 5.09483 18.7004 4.28166C18.3919 3.84852 18.0548 3.42967 17.685 3.04556C17.3152 2.6635 16.9127 2.32638 16.4918 2.00356C15.695 1.39266 14.8062 0.930913 13.8663 0.585622C12.9061 0.232159 11.8784 0.0482765 10.8588 0.00741368C9.82501 -0.0334491 8.76667 0.0952688 7.76961 0.377222C6.81547 0.64896 5.8838 1.06576 5.05428 1.61128C4.22885 2.15475 3.47085 2.8106 2.84156 3.57269C2.50444 3.98132 2.18775 4.41038 1.91602 4.86396C1.63815 5.32775 1.41136 5.81606 1.20705 6.31459C0.816807 7.26465 0.604321 8.276 0.526681 9.29962C0.446999 10.3334 0.54507 11.3897 0.788203 12.397C1.02316 13.3675 1.41953 14.3176 1.93849 15.1716C2.44723 16.0093 3.08469 16.7877 3.81818 17.4395C4.55984 18.0974 5.3914 18.6633 6.29651 19.072C6.78891 19.2947 7.29152 19.4908 7.81048 19.6359C8.34782 19.785 8.89334 19.877 9.44703 19.9403C10.4829 20.0608 11.5372 19.9934 12.5567 19.7871C13.5415 19.5889 14.5018 19.2211 15.3783 18.7308C16.2343 18.2527 17.0332 17.6356 17.7095 16.9267C18.3919 16.2136 18.9844 15.3923 19.4237 14.5076C19.8732 13.6045 20.2042 12.6402 20.3574 11.6431C20.4412 11.0976 20.4984 10.55 20.4984 9.99837C20.4984 9.73685 20.384 9.46102 20.2001 9.2751C20.0223 9.09735 19.7322 8.96454 19.4768 8.9768C19.2132 8.98906 18.9395 9.07487 18.7535 9.2751C18.5717 9.47941 18.4573 9.72459 18.4573 10.0025Z" fill="white"/>
<path d="M10.4993 15.1389C10.8159 15.1389 11.1428 15.0102 11.3676 14.7834C11.6046 14.5423 11.7272 14.2358 11.7374 13.9007C11.7415 13.7843 11.719 13.6637 11.6863 13.5493C11.6312 13.3614 11.5229 13.1713 11.3839 13.0324C11.2654 12.9139 11.1347 12.8322 10.9835 12.7688C10.8262 12.7014 10.6791 12.6626 10.5013 12.6626C10.393 12.6626 10.2663 12.683 10.1621 12.7096C9.97622 12.7586 9.7719 12.8792 9.63501 13.0161C9.40822 13.2428 9.25295 13.5738 9.2652 13.8987C9.27542 14.2195 9.38779 14.5239 9.61254 14.7568C9.85159 15.0122 10.1581 15.1205 10.4993 15.1389C10.7526 15.1532 11.0468 15.0143 11.2225 14.8406C11.4003 14.6628 11.5331 14.3727 11.5208 14.1173C11.5086 13.8537 11.4228 13.58 11.2225 13.394C11.0162 13.2061 10.7812 13.11 10.4993 13.0957C10.4911 13.0957 10.4829 13.0957 10.4747 13.0937C10.5646 13.106 10.6566 13.1182 10.7465 13.1305C10.722 13.1264 10.7036 13.1223 10.6811 13.1121C10.7628 13.1468 10.8446 13.1816 10.9242 13.2142C10.9099 13.2081 10.8977 13.1999 10.8854 13.1918C10.9549 13.2449 11.0223 13.298 11.0918 13.3511C11.0734 13.3368 11.0591 13.3225 11.0448 13.3041C11.0979 13.3736 11.151 13.441 11.2041 13.5105C11.196 13.4982 11.1878 13.486 11.1817 13.4717C11.2164 13.5534 11.2511 13.6351 11.2838 13.7148C11.2757 13.6923 11.2695 13.6719 11.2654 13.6494C11.2777 13.7393 11.29 13.8313 11.3022 13.9212C11.3002 13.8905 11.3002 13.9048 11.3022 13.8742C11.29 13.9641 11.2777 14.056 11.2654 14.1459C11.2695 14.1214 11.2736 14.103 11.2838 14.0805C11.2491 14.1623 11.2144 14.244 11.1817 14.3237C11.1878 14.3094 11.196 14.2971 11.2041 14.2849C11.151 14.3543 11.0979 14.4217 11.0448 14.4912C11.0591 14.4728 11.0734 14.4585 11.0918 14.4442C11.0223 14.4973 10.9549 14.5505 10.8854 14.6036C10.8977 14.5954 10.9099 14.5872 10.9242 14.5811C10.8425 14.6158 10.7608 14.6506 10.6811 14.6833C10.7036 14.6751 10.724 14.669 10.7465 14.6649C10.6566 14.6771 10.5646 14.6894 10.4747 14.7017C10.5054 14.6996 10.4911 14.6996 10.5217 14.7017C10.4318 14.6894 10.3399 14.6771 10.25 14.6649C10.2745 14.669 10.2929 14.673 10.3154 14.6833C10.2337 14.6485 10.1519 14.6138 10.0722 14.5811C10.0865 14.5872 10.0988 14.5954 10.1111 14.6036C10.0416 14.5505 9.97417 14.4973 9.90471 14.4442C9.92309 14.4585 9.9374 14.4728 9.9517 14.4912C9.89858 14.4217 9.84546 14.3543 9.79233 14.2849C9.80051 14.2971 9.80868 14.3094 9.81481 14.3237C9.78008 14.2419 9.74534 14.1602 9.71265 14.0805C9.72082 14.103 9.72695 14.1234 9.73104 14.1459C9.71878 14.056 9.70652 13.9641 9.69426 13.8742C9.69631 13.9048 9.69631 13.8905 9.69426 13.9212C9.70652 13.8313 9.71878 13.7393 9.73104 13.6494C9.72695 13.674 9.72287 13.6923 9.71265 13.7148C9.74738 13.6331 9.78212 13.5514 9.81481 13.4717C9.80868 13.486 9.80051 13.4982 9.79233 13.5105C9.84546 13.441 9.89858 13.3736 9.9517 13.3041C9.9374 13.3225 9.92309 13.3368 9.90471 13.3511C9.97417 13.298 10.0416 13.2449 10.1111 13.1918C10.0988 13.1999 10.0865 13.2081 10.0722 13.2142C10.154 13.1795 10.2357 13.1448 10.3154 13.1121C10.2929 13.1203 10.2725 13.1264 10.25 13.1305C10.3399 13.1182 10.4318 13.106 10.5217 13.0937C10.5136 13.0937 10.5054 13.0957 10.4972 13.0957C10.2357 13.0957 9.95987 13.2102 9.77395 13.394C9.59619 13.5718 9.46339 13.8619 9.47565 14.1173C9.48791 14.3809 9.57372 14.6547 9.77395 14.8406C9.97622 15.0224 10.2234 15.1389 10.4993 15.1389Z" fill="white"/>
<path d="M9.47766 5.50136C9.47766 6.10613 9.47766 6.7109 9.47766 7.31362C9.47766 8.27799 9.47766 9.24235 9.47766 10.2047C9.47766 10.4274 9.47766 10.6501 9.47766 10.8707C9.47766 11.1323 9.59208 11.4081 9.77596 11.594C9.95371 11.7718 10.2438 11.9046 10.4992 11.8923C10.7628 11.88 11.0366 11.7942 11.2225 11.594C11.4064 11.3938 11.5208 11.1486 11.5208 10.8707C11.5208 10.266 11.5208 9.66119 11.5208 9.05847C11.5208 8.0941 11.5208 7.12974 11.5208 6.16742C11.5208 5.94472 11.5208 5.72202 11.5208 5.50136C11.5208 5.23984 11.4064 4.96401 11.2225 4.77809C11.0448 4.60033 10.7546 4.46753 10.4992 4.47979C10.2357 4.49205 9.96189 4.57786 9.77596 4.77809C9.59412 4.97831 9.47766 5.22349 9.47766 5.50136Z" fill="white"/>
</svg>
