<svg width="20" height="20" viewBox="0 0 20 20" fill="none" xmlns="http://www.w3.org/2000/svg">
<path d="M10 20C4.47715 20 0 15.5228 0 10C0 4.47715 4.47715 0 10 0C15.5228 0 20 4.47715 20 10C20 15.5228 15.5228 20 10 20ZM10 18.2857C14.5761 18.2857 18.2857 14.5761 18.2857 10C18.2857 5.42393 14.5761 1.71429 10 1.71429C5.42393 1.71429 1.71429 5.42393 1.71429 10C1.71429 14.5761 5.42393 18.2857 10 18.2857Z" fill="white"/>
<path d="M14.598 7.14548L14.6618 7.20928C14.9789 7.5264 14.9789 8.04055 14.6618 8.35766L9.3452 13.6743C9.02809 13.9914 8.51394 13.9914 8.19682 13.6743L8.13302 13.6105C7.8159 13.2933 7.8159 12.7792 8.13302 12.4621L13.4496 7.14548C13.7667 6.82836 14.2809 6.82836 14.598 7.14548Z" fill="white"/>
<path d="M9.14358 13.8066L9.07978 13.8704C8.76267 14.1875 8.24852 14.1875 7.9314 13.8704L5.03917 10.9782C4.72205 10.6611 4.72205 10.1469 5.03917 9.8298L5.10297 9.766C5.42009 9.44889 5.93424 9.44889 6.25136 9.766L9.14358 12.6582C9.4607 12.9753 9.4607 13.4895 9.14358 13.8066Z" fill="white"/>
</svg>
