<svg width="24" height="20" viewBox="0 0 24 20" fill="none" xmlns="http://www.w3.org/2000/svg">
<path d="M3.39562 20C2.22451 20 1.14448 19.3624 0.5329 18.3604C-0.156755 17.2284 -0.156755 15.8751 0.415789 14.691L8.002 2.27716C8.86081 1.01496 9.97988 0 11.6064 0C13.233 0 14.352 1.01496 15.2108 2.27716L22.758 14.6259C23.3826 15.784 23.3566 17.2414 22.6669 18.3604C22.0553 19.3624 20.9883 20 19.8042 20H3.39562V20ZM11.6064 13.5198C12.2961 13.5198 12.8426 14.0794 12.8426 14.769C12.8426 15.4587 12.2961 16.0052 11.6064 16.0052C10.9168 16.0052 10.3572 15.4587 10.3572 14.769C10.3572 14.0794 10.9168 13.5198 11.6064 13.5198ZM11.6064 12.2837C11.151 12.2837 10.8257 11.9063 10.7736 11.4509L10.3572 7.71633C10.2922 7.07873 10.9688 6.48016 11.6064 6.48016C12.244 6.48016 12.9207 7.07873 12.8426 7.71633L12.4262 11.4509C12.3872 11.8933 12.0749 12.2837 11.6064 12.2837V12.2837ZM3.39562 18.3474H19.8042C20.4158 18.3474 20.9363 18.0091 21.2616 17.4886C21.639 16.864 21.6259 16.1093 21.3267 15.4587L13.8315 3.20104C13.298 2.4203 12.6344 1.65257 11.6064 1.65257C10.5784 1.65257 9.9018 2.4203 9.36829 3.20104L1.88619 15.4587C1.57389 16.1223 1.56088 16.864 1.95125 17.4886C2.26354 18.0091 2.78404 18.3474 3.39562 18.3474V18.3474Z" fill="white"/>
</svg>
